<svg width="33" height="32" viewBox="0 0 33 32" fill="none" xmlns="http://www.w3.org/2000/svg">
<g clip-path="url(#clip0_31_13)">
<path d="M30.8115 14.25L27.3115 10.125C27.2282 9.95833 27.0615 9.875 26.8115 9.875C26.5615 9.875 26.3322 9.93767 26.1235 10.063C25.9149 10.1883 25.8105 10.376 25.8105 10.626C25.8105 10.876 25.8939 11.0843 26.0605 11.251L29.3105 15.126H1.56055C1.31055 15.126 1.10221 15.2093 0.935547 15.376C0.76888 15.5427 0.685547 15.751 0.685547 16.001C0.685547 16.251 0.76888 16.4803 0.935547 16.689C1.10221 16.8977 1.31055 17.002 1.56055 17.002H29.3105L26.0605 20.752C25.8939 20.9187 25.8105 21.127 25.8105 21.377C25.8105 21.627 25.8939 21.8353 26.0605 22.002C26.2272 22.1687 26.4355 22.252 26.6855 22.252C26.9355 22.252 27.1439 22.1687 27.3105 22.002L30.8105 17.877C31.2272 17.2937 31.4355 16.6687 31.4355 16.002C31.4355 15.3353 31.2272 14.752 30.8105 14.252L30.8115 14.25Z" fill="#1B1918"/>
</g>
<defs>
<clipPath id="clip0_31_13">
<rect width="32" height="32" fill="white" transform="translate(0.0625)"/>
</clipPath>
</defs>
</svg>
