<svg width="32" height="32" viewBox="0 0 32 32" fill="none" xmlns="http://www.w3.org/2000/svg">
<g clip-path="url(#clip0_31_10)">
<path d="M18.1587 31.9375H13.0241C12.1665 31.9375 11.4688 31.2412 11.4688 30.3853V18.8267H8.47325C7.61562 18.8267 6.91797 18.1301 6.91797 17.2744V12.3215C6.91797 11.4656 7.61562 10.7693 8.47325 10.7693H11.4688V8.28906C11.4688 5.82983 12.2426 3.73755 13.7061 2.23877C15.1763 0.733154 17.2308 -0.0625 19.6477 -0.0625L23.5635 -0.0561524C24.4197 -0.0546875 25.1161 0.641602 25.1161 1.49609V6.09473C25.1161 6.95068 24.4187 7.64697 23.5613 7.64697L20.9248 7.64795C20.1208 7.64795 19.916 7.80884 19.8722 7.85816C19.8001 7.93994 19.7142 8.17114 19.7142 8.80957V10.769H23.3632C23.6379 10.769 23.904 10.8367 24.1327 10.9641C24.6261 11.2393 24.9329 11.7595 24.9329 12.3218L24.9309 17.2747C24.9309 18.1301 24.2333 18.8264 23.3757 18.8264H19.7142V30.3853C19.7142 31.2412 19.0163 31.9375 18.1587 31.9375ZM13.3485 30.0615H17.8343V17.9868C17.8343 17.4153 18.3003 16.9504 18.8727 16.9504H23.0513L23.053 12.6453H18.8725C18.3001 12.6453 17.8343 12.1804 17.8343 11.6089V8.80957C17.8343 8.07666 17.9089 7.24317 18.4632 6.6167C19.133 5.85938 20.1885 5.77197 20.9243 5.77197L23.2365 5.771V1.81934L19.6462 1.81348C15.7621 1.81348 13.3485 4.29492 13.3485 8.28906V11.6089C13.3485 12.1802 12.8827 12.6453 12.3103 12.6453H8.79762V16.9504H12.3103C12.8827 16.9504 13.3485 17.4153 13.3485 17.9868V30.0615ZM23.5598 1.81982H23.5601H23.5598Z" fill="#1B1918"/>
</g>
<defs>
<clipPath id="clip0_31_10">
<rect width="32" height="32" fill="white"/>
</clipPath>
</defs>
</svg>
