<svg width="32" height="32" viewBox="0 0 32 32" fill="none" xmlns="http://www.w3.org/2000/svg">
<path d="M18.125 19.75C18.7083 19.1667 19 18.4167 19 17.5C19 16.5833 18.7083 15.8333 18.125 15.25C17.5417 14.6667 16.8123 14.375 15.937 14.375C15.0617 14.375 14.3323 14.6667 13.749 15.25C13.1657 15.8333 12.874 16.5833 12.874 17.5C12.874 18.4167 13.1657 19.1667 13.749 19.75C13.0823 20.0833 12.5407 20.5 12.124 21C11.124 22.25 10.624 23.7083 10.624 25.375C10.624 25.7083 10.8323 25.9793 11.249 26.188C11.6657 26.3967 12.2073 26.626 12.874 26.876C13.9573 27.2093 14.999 27.376 15.999 27.376C17.6657 27.376 19.2907 26.9593 20.874 26.126C21.124 25.9593 21.249 25.6677 21.249 25.251C21.249 23.501 20.749 22.0843 19.749 21.001C19.1657 20.4177 18.624 20.001 18.124 19.751L18.125 19.75ZM16 16.125C16.4167 16.125 16.75 16.25 17 16.5C17.25 16.75 17.375 17.0627 17.375 17.438C17.375 17.8133 17.25 18.126 17 18.376C16.75 18.626 16.4373 18.751 16.062 18.751C15.6867 18.751 15.3533 18.626 15.062 18.376C14.7707 18.126 14.6247 17.8133 14.624 17.438C14.6233 17.0627 14.7483 16.75 14.999 16.5C15.2497 16.25 15.583 16.125 15.999 16.125H16ZM16 25.625C15 25.625 13.8333 25.375 12.5 24.875C12.5833 23.7917 12.9377 22.875 13.563 22.125C14.1883 21.375 14.98 21 15.938 21C16.896 21 17.6877 21.375 18.313 22.125C18.9383 22.875 19.3343 23.7917 19.501 24.875C19.0843 25.0417 18.5633 25.2083 17.938 25.375C17.3127 25.5417 16.6667 25.625 16 25.625ZM26.625 10.125L17.25 1.25C16.8333 0.833333 16.25 0.625 15.5 0.625H7.5C6.75 0.625 6.08333 0.916667 5.5 1.5C4.91667 2.08333 4.625 2.75 4.625 3.5V28.375C4.625 29.2083 4.91667 29.896 5.5 30.438C6.08333 30.98 6.75 31.251 7.5 31.251H24.5C25.25 31.251 25.9167 30.9593 26.5 30.376C27.0833 29.7927 27.375 29.126 27.375 28.376V11.876C27.375 11.126 27.125 10.5427 26.625 10.126V10.125ZM16.875 3.25L24.5 10.375H17.625C17.4583 10.375 17.2917 10.3123 17.125 10.187C16.9583 10.0617 16.875 9.91567 16.875 9.749V3.249V3.25ZM24.5 29.625H7.5C7.25 29.625 7 29.5207 6.75 29.312C6.5 29.1033 6.375 28.8323 6.375 28.499V3.624C6.375 3.29067 6.5 2.999 6.75 2.749C7 2.499 7.25 2.374 7.5 2.374H15.125V9.749C15.125 10.4157 15.375 10.9783 15.875 11.437C16.375 11.8957 16.9583 12.125 17.625 12.125H25.75V28.375C25.6667 28.7083 25.5207 29 25.312 29.25C25.1033 29.5 24.8323 29.625 24.499 29.625H24.5Z" fill="black"/>
</svg>
