<svg width="33" height="32" viewBox="0 0 33 32" fill="none" xmlns="http://www.w3.org/2000/svg">
<g clip-path="url(#clip0_31_33)">
<path d="M23.4453 0H8.76952C3.99316 0 0.107422 3.88573 0.107422 8.66209V23.3381C0.107422 28.1142 3.99316 31.9999 8.76952 31.9999H23.4455C28.2216 31.9999 32.1074 28.1142 32.1074 23.3381V8.66209C32.1074 3.88573 28.2216 0 23.4453 0V0ZM30.2314 23.3381C30.2314 27.0798 27.1872 30.124 23.4453 30.124H8.76952C5.02758 30.124 1.98339 27.0798 1.98339 23.3381V8.66209C1.98339 4.92016 5.02758 1.87597 8.76952 1.87597H23.4455C27.1872 1.87597 30.2314 4.92016 30.2314 8.66209V23.3381Z" fill="#1B1918"/>
<path d="M16.1072 7.25C11.2825 7.25 7.35742 11.175 7.35742 15.9997C7.35742 20.8244 11.2825 24.7495 16.1072 24.7495C20.9319 24.7495 24.8569 20.8244 24.8569 15.9997C24.8569 11.175 20.9319 7.25 16.1072 7.25ZM16.1072 22.8735C12.3171 22.8735 9.23339 19.79 9.23339 15.9997C9.23339 12.2097 12.3171 9.12597 16.1072 9.12597C19.8974 9.12597 22.9809 12.2097 22.9809 15.9997C22.9809 19.79 19.8974 22.8735 16.1072 22.8735Z" fill="#1B1918"/>
<path d="M25.0659 4.14258C23.6401 4.14258 22.4805 5.30249 22.4805 6.72802C22.4805 8.1538 23.6401 9.31371 25.0659 9.31371C26.4917 9.31371 27.6516 8.1538 27.6516 6.72802C27.6516 5.30224 26.4917 4.14258 25.0659 4.14258ZM25.0659 7.43749C24.6748 7.43749 24.3564 7.11913 24.3564 6.72802C24.3564 6.33667 24.6748 6.01855 25.0659 6.01855C25.4573 6.01855 25.7756 6.33667 25.7756 6.72802C25.7756 7.11913 25.4573 7.43749 25.0659 7.43749Z" fill="#1B1918"/>
</g>
<defs>
<clipPath id="clip0_31_33">
<rect width="32" height="32" fill="white" transform="translate(0.107422)"/>
</clipPath>
</defs>
</svg>
