<svg width="33" height="32" viewBox="0 0 33 32" fill="none" xmlns="http://www.w3.org/2000/svg">
<g clip-path="url(#clip0_31_9)">
<path d="M32.4547 4.21444C32.1412 3.83186 31.6214 3.68998 31.1592 3.86023L1.80573 14.4887C1.21931 14.7022 0.807686 15.2201 0.73127 15.8402C0.655586 16.4573 0.927071 17.0562 1.43635 17.4008L5.63215 20.2707C6.03864 20.5488 6.56135 20.5787 6.99665 20.3485L16.0982 15.5395L9.00471 20.8465C8.6717 21.0958 8.47272 21.4933 8.47272 21.9096V26.8255C8.47272 27.3326 8.75031 27.7971 9.19709 28.0383C9.6446 28.2795 10.1851 28.2555 10.6102 27.9747L13.7979 25.8561L16.9327 27.9977C17.2073 28.1863 17.5345 28.2856 17.8646 28.2856C17.9761 28.2856 18.0882 28.2741 18.1986 28.2511C18.6387 28.1592 19.0281 27.8867 19.2672 27.5036L32.5477 5.5618C32.8062 5.13934 32.7691 4.59874 32.4547 4.21444ZM17.7945 26.3116L14.5482 24.0936C14.3223 23.939 14.0621 23.8617 13.8021 23.8617C13.5477 23.8617 13.293 23.9358 13.0701 24.0841L10.3487 25.8928V22.187L22.8743 12.816C23.4337 12.3974 23.5745 11.6357 23.2017 11.0442C22.8287 10.4527 22.0819 10.2528 21.4644 10.5792L6.4156 18.5305L2.86677 16.1031L29.8973 6.31596L17.7945 26.3116Z" fill="#1B1918"/>
</g>
<defs>
<clipPath id="clip0_31_9">
<rect width="32" height="32" fill="white" transform="translate(0.71875)"/>
</clipPath>
</defs>
</svg>
