<svg width="32" height="32" viewBox="0 0 32 32" fill="none" xmlns="http://www.w3.org/2000/svg">
<path d="M10.2481 14.25C11.7481 14.25 13.0398 13.729 14.1231 12.687C15.2064 11.645 15.7481 10.374 15.7481 8.87405C15.7481 7.37405 15.2064 6.10305 14.1231 5.06105C13.0398 4.01905 11.7481 3.49805 10.2481 3.49805C8.74809 3.49805 7.45643 4.01905 6.37309 5.06105C5.28976 6.10305 4.74809 7.37405 4.74809 8.87405C4.74809 10.374 5.28976 11.645 6.37309 12.687C7.45643 13.729 8.74809 14.25 10.2481 14.25ZM10.2481 5.25005C11.3314 5.25005 12.2274 5.60438 12.9361 6.31305C13.6448 7.02171 13.9991 7.87605 13.9991 8.87605C13.9991 9.87605 13.6448 10.7304 12.9361 11.439C12.2274 12.1477 11.3314 12.502 10.2481 12.502C9.16476 12.502 8.26876 12.1477 7.56009 11.439C6.85143 10.7304 6.49709 9.87605 6.49709 8.87605C6.49709 7.87605 6.85143 7.02171 7.56009 6.31305C8.26876 5.60438 9.16476 5.25005 10.2481 5.25005ZM23.2481 16.75C24.5814 16.75 25.7064 16.2917 26.6231 15.375C27.5398 14.4584 27.9981 13.375 27.9981 12.125C27.9981 10.875 27.5398 9.79171 26.6231 8.87505C25.7064 7.95838 24.5814 7.50005 23.2481 7.50005C21.9148 7.50005 20.7898 7.95838 19.8731 8.87505C18.9564 9.79171 18.4981 10.875 18.4981 12.125C18.4981 13.375 18.9564 14.4584 19.8731 15.375C20.7898 16.2917 21.9148 16.75 23.2481 16.75ZM23.2481 9.25005C24.0814 9.25005 24.7898 9.52105 25.3731 10.063C25.9564 10.605 26.2481 11.2717 26.2481 12.063C26.2481 12.8544 25.9564 13.542 25.3731 14.126C24.7898 14.71 24.0814 15.0017 23.2481 15.001C22.4148 15.0004 21.7064 14.7087 21.1231 14.126C20.5398 13.5434 20.2481 12.8557 20.2481 12.063C20.2481 11.2704 20.5398 10.6037 21.1231 10.063C21.7064 9.52238 22.4148 9.25138 23.2481 9.25005ZM23.4981 17.875H22.9981C21.4981 17.875 20.0814 18.2917 18.7481 19.125C18.0814 18.2084 17.2271 17.4584 16.1851 16.875C15.1431 16.2917 13.9971 16 12.7471 16H7.74709C6.41376 16 5.20543 16.3127 4.12209 16.938C3.03876 17.5634 2.18443 18.4177 1.55909 19.501C0.93376 20.5844 0.621094 21.7927 0.621094 23.126V27.001C0.621094 27.4177 0.767094 27.772 1.05909 28.064C1.35109 28.356 1.70543 28.502 2.12209 28.502H29.9971C30.4138 28.502 30.7681 28.356 31.0601 28.064C31.3521 27.772 31.4981 27.4177 31.4981 27.001V25.751C31.4148 24.3344 31.0188 23.0217 30.3101 21.813C29.6014 20.6044 28.6431 19.646 27.4351 18.938C26.2271 18.23 24.9144 17.8757 23.4971 17.875H23.4981ZM16.6231 26.75H2.37309V23.125C2.37309 21.625 2.89409 20.354 3.93609 19.312C4.97809 18.27 6.24909 17.749 7.74909 17.749H12.7491C14.2491 17.749 15.5201 18.27 16.5621 19.312C17.6041 20.354 18.1251 21.625 18.1251 23.125V26.75H16.6251H16.6231ZM29.6231 26.75H19.8731V23.125C19.8731 22.375 19.7481 21.5834 19.4981 20.75C20.5814 20 21.7481 19.625 22.9981 19.625H23.4981C25.1648 19.625 26.6024 20.2294 27.8111 21.438C29.0198 22.6467 29.6241 24.0844 29.6241 25.751V26.751L29.6231 26.75Z" fill="black"/>
</svg>
