<svg width="33" height="32" viewBox="0 0 33 32" fill="none" xmlns="http://www.w3.org/2000/svg">
<path d="M31.0928 11.2942C31.093 8.28882 29.915 5.45581 27.7761 3.31689C25.6372 1.17798 22.8042 0 19.7986 0H13.1067C13.1064 0 13.1064 0 13.1064 0C10.1013 0 7.26807 1.17798 5.12939 3.31665C2.99048 5.45581 1.8125 8.28882 1.8125 11.2942V16.5544C1.8125 18.8821 2.52246 21.1208 3.86572 23.0293C5.05078 24.7129 6.64453 26.0281 8.50269 26.8618V29.8833C8.50269 31.4456 9.37744 32 10.1265 32C10.6616 32 11.1968 31.7358 11.7178 31.2151L15.084 27.8489L19.7988 27.8486C22.8042 27.8486 25.6372 26.6707 27.7761 24.532C29.915 22.3931 31.093 19.5598 31.093 16.5544L31.0928 11.2942ZM19.7988 25.9736L14.6958 25.9739C14.447 25.9739 14.2087 26.0725 14.033 26.2483L10.3921 29.8892C10.3875 29.894 10.3826 29.8987 10.3777 29.9033C10.3777 29.8967 10.3777 29.8899 10.3777 29.8833V26.2361C10.3777 25.8472 10.1377 25.4988 9.77441 25.3601C6.13379 23.9709 3.68774 20.4321 3.68774 16.5544V11.2942C3.68774 8.78955 4.67065 6.42725 6.45532 4.64233C8.23999 2.85791 10.6021 1.875 13.1067 1.875H19.7986C22.3032 1.875 24.6655 2.85791 26.4502 4.64258C28.2351 6.42749 29.218 8.78979 29.2178 11.2942L29.218 16.5544C29.2178 21.7483 24.9924 25.9736 19.7988 25.9736Z" fill="#1B1918"/>
<path d="M18.946 15.3333C18.58 14.967 17.9865 14.967 17.6203 15.3333L16.8629 16.0903L13.9284 13.156L14.6857 12.3989C14.8615 12.2231 14.9604 11.9846 14.9604 11.7358C14.9604 11.4873 14.8615 11.2488 14.6857 11.073L11.1354 7.52271C10.9596 7.34692 10.7213 7.24805 10.4726 7.24805C10.224 7.24805 9.9855 7.34692 9.80972 7.52271L7.32437 10.0081C5.98038 11.3521 5.98038 13.5393 7.32462 14.884L15.1349 22.6948C15.7843 23.344 16.6503 23.7014 17.5729 23.7014C18.4958 23.7014 19.3617 23.344 20.0111 22.6948L22.4965 20.2097C22.6723 20.0337 22.7711 19.7954 22.7711 19.5466C22.7711 19.2981 22.6723 19.0596 22.4965 18.8838L18.946 15.3333ZM18.6852 21.3687C18.39 21.6638 17.995 21.8264 17.5729 21.8264C17.1508 21.8264 16.7558 21.6638 16.4606 21.3687L8.65054 13.5581C8.03726 12.9448 8.03702 11.9468 8.6503 11.3337L10.4726 9.51123L12.6969 11.7358L11.9396 12.4929C11.7638 12.6687 11.6649 12.9072 11.6649 13.1558C11.6649 13.4045 11.7638 13.6428 11.9396 13.8188L16.1999 18.0791C16.5661 18.4451 17.1596 18.4453 17.5258 18.0791L18.2831 17.322L20.5075 19.5464L18.6852 21.3687Z" fill="#1B1918"/>
<path d="M16.6797 4.14746C16.1619 4.14746 15.7422 4.56714 15.7422 5.08496C15.7422 5.60254 16.1619 6.02246 16.6797 6.02246C18.8252 6.02246 20.8425 6.85791 22.3596 8.37524C23.877 9.89233 24.7124 11.9094 24.7124 14.0552C24.7124 14.5728 25.1321 14.9927 25.6499 14.9927C26.1675 14.9927 26.5874 14.573 26.5874 14.0552C26.5874 11.4087 25.5569 8.92065 23.6855 7.04932C21.8142 5.17798 19.3262 4.14746 16.6797 4.14746Z" fill="#1B1918"/>
<path d="M20.6958 14.0549C20.6958 14.5725 21.1157 14.9924 21.6333 14.9924C22.1511 14.9924 22.5708 14.5725 22.5708 14.0549C22.5708 10.8066 19.928 8.16406 16.6797 8.16406C16.1619 8.16406 15.7422 8.58374 15.7422 9.10156C15.7422 9.61938 16.1619 10.0391 16.6797 10.0391C18.8943 10.0391 20.6958 11.8406 20.6958 14.0549Z" fill="#1B1918"/>
</svg>
