<svg width="33" height="32" viewBox="0 0 33 32" fill="none" xmlns="http://www.w3.org/2000/svg">
<g clip-path="url(#clip0_31_11)">
<path d="M28.283 4.54517C25.3518 1.61401 21.4556 0 17.3101 0C17.3098 0 17.3088 0 17.3086 0C15.2583 0.000244141 13.2603 0.397217 11.3704 1.18018C9.48023 1.96313 7.78687 3.09521 6.33692 4.54517C3.40601 7.47607 1.792 11.373 1.792 15.5181C1.792 17.99 2.38843 20.4465 3.51856 22.6353L0.91016 30.0869C0.726322 30.6125 0.856449 31.1838 1.25049 31.5776C1.52613 31.8535 1.88892 32 2.26197 32C2.42188 32 2.5835 31.9731 2.74121 31.918L10.1929 29.3098C12.3816 30.4399 14.8381 31.0364 17.3101 31.0364C21.4551 31.0364 25.3518 29.4221 28.283 26.4912C31.2139 23.5603 32.8281 19.6633 32.8281 15.5183C32.8281 11.373 31.2141 7.47607 28.283 4.54517ZM26.9558 25.1641C24.3794 27.7407 20.9536 29.1594 17.3101 29.1594C15.0811 29.1594 12.8667 28.6082 10.9063 27.5647C10.5508 27.3757 10.1306 27.3433 9.75342 27.4753L2.9834 29.8447L5.35303 23.0747C5.48511 22.697 5.4524 22.2769 5.26343 21.9216C4.22022 19.9617 3.6687 17.7473 3.6687 15.5181C3.6687 11.8745 5.08765 8.44873 7.66407 5.87231C10.2402 3.29614 13.6655 1.8772 17.3088 1.87671H17.3101C20.9539 1.87671 24.3794 3.29565 26.9558 5.87231C29.5325 8.44873 30.9514 11.8743 30.9514 15.5181C30.9514 19.1619 29.5325 22.5876 26.9558 25.1641Z" fill="#1B1918"/>
<path d="M23.0769 16.9041C22.363 16.1902 21.2014 16.1902 20.4876 16.9041L19.7068 17.6848C17.7681 16.6284 16.1992 15.0596 15.1426 13.1208L15.9233 12.3401C16.6375 11.6262 16.6375 10.4646 15.9233 9.75073L13.8193 7.64673C13.1055 6.93286 11.9439 6.93286 11.23 7.64673L9.54688 9.32983C8.58277 10.2939 8.53468 11.9514 9.41138 13.9971C10.1726 15.7732 11.5657 17.7253 13.334 19.4937C15.1023 21.262 17.0545 22.655 18.8306 23.4163C19.8025 23.8328 20.6865 24.0405 21.4504 24.0405C22.2944 24.0405 22.9917 23.7869 23.4978 23.2808L25.1809 21.5974V21.5977C25.5269 21.2517 25.7173 20.792 25.7173 20.303C25.7173 19.8137 25.5269 19.354 25.1809 19.0083L23.0769 16.9041ZM22.1707 21.9536C21.8955 22.2288 21.0493 22.3252 19.5701 21.6914C18.0081 21.022 16.2647 19.77 14.6611 18.1665C13.0576 16.563 11.8059 14.8198 11.1365 13.2578C10.5024 11.7786 10.5989 10.9321 10.874 10.657L12.5249 9.0061L14.564 11.0454L13.5867 12.0229C13.1448 12.4648 13.0381 13.135 13.3215 13.6907C14.6065 16.2102 16.6174 18.2212 19.137 19.5061C19.6929 19.7896 20.363 19.6831 20.8049 19.241L21.7822 18.2637L23.8215 20.303L22.1707 21.9536Z" fill="#1B1918"/>
</g>
<defs>
<clipPath id="clip0_31_11">
<rect width="32" height="32" fill="white" transform="translate(0.828125)"/>
</clipPath>
</defs>
</svg>
